<svg xmlns="http://www.w3.org/2000/svg" width="1000" height="224" viewBox="0 0 1000 129">
<g>
<path d="M 1000.00 129.00 L 0.00 129.00 L 49.75 128.93 C94.42,128.87 99.03,128.71 94.86,127.43 C84.73,124.31 74.90,114.75 71.33,104.55 C69.98,100.69 69.48,95.43 69.20,82.25 L 68.83 65.00 L 63.84 65.00 C60.28,65.00 58.95,64.63 59.18,63.72 C59.71,61.59 77.42,38.10 78.50,38.08 C79.39,38.07 98.01,61.89 98.83,64.11 C99.02,64.60 96.65,65.00 93.58,65.00 L 88.00 65.00 L 88.00 80.53 C88.00,98.07 88.67,100.75 94.33,105.72 C100.19,110.86 102.58,111.15 136.08,110.81 L 166.65 110.50 L 170.81 107.75 C179.30,102.12 181.76,90.10 176.02,82.19 C171.63,76.12 169.14,74.89 160.03,74.26 L 152.00 73.71 L 152.00 67.82 C152.00,54.80 145.09,47.00 133.55,47.00 L 128.00 47.00 L 127.97 43.75 C127.95,41.96 127.11,38.10 126.10,35.18 L 124.26 29.85 L 126.88 28.83 C131.11,27.17 143.28,28.52 149.40,31.33 C156.10,34.39 163.51,41.76 166.63,48.45 C167.92,51.23 168.98,54.01 168.99,54.63 C169.00,55.26 171.48,56.77 174.51,58.01 C195.79,66.64 204.25,91.54 192.64,111.35 C188.43,118.53 179.42,125.49 171.00,128.06 C170.99,128.07 170.99,128.07 170.99,128.07 C170.99,128.49 356.43,128.87 584.25,128.91 L 1000.00 129.00 ZM 461.08 108.08 C458.51,110.65 457.44,111.00 452.24,111.00 C448.99,111.00 446.03,110.70 445.67,110.33 C445.30,109.97 445.00,89.23 445.00,64.25 L 445.00 18.84 L 468.75 19.21 C494.15,19.61 497.59,20.19 506.03,25.52 C510.31,28.22 515.51,35.63 517.21,41.44 C519.32,48.65 518.73,58.79 515.83,65.09 C509.47,78.90 498.42,84.00 474.82,84.00 L 464.00 84.00 L 464.00 94.58 C464.00,104.93 463.94,105.21 461.08,108.08 ZM 353.39 110.04 C350.52,111.13 340.67,111.34 339.67,110.33 C339.30,109.97 339.00,89.27 339.00,64.33 L 339.00 19.00 L 348.65 19.00 L 361.56 32.75 C380.39,52.82 399.24,72.00 400.13,72.00 C400.55,72.00 401.03,61.21 401.20,48.03 C401.49,24.71 401.56,23.99 403.74,21.81 C405.54,20.02 407.40,19.49 412.99,19.17 L 420.00 18.77 L 420.00 111.00 L 415.90 111.00 C411.44,111.00 411.21,110.79 372.58,70.00 C366.07,63.12 360.35,57.35 359.87,57.17 C359.39,56.98 359.00,67.24 359.00,79.97 C359.00,105.18 358.45,108.12 353.39,110.04 ZM 290.06 97.50 C284.23,110.16 283.98,110.51 280.70,110.80 C278.80,110.97 276.87,110.53 276.28,109.80 C275.70,109.09 273.09,103.78 270.47,98.00 C260.92,76.91 243.69,39.26 239.40,30.12 C236.98,24.95 235.00,20.30 235.00,19.77 C235.00,19.20 238.80,18.95 244.40,19.15 C255.43,19.56 256.49,20.21 259.97,28.73 C261.27,31.90 263.52,37.20 264.99,40.50 C266.45,43.80 270.31,52.69 273.57,60.25 C276.83,67.81 279.77,74.00 280.11,74.00 C280.76,74.00 283.16,68.82 295.58,40.60 C304.98,19.22 305.20,19.01 317.75,19.00 C322.29,19.00 326.00,19.15 326.00,19.32 C326.00,19.50 324.65,22.43 323.00,25.84 C321.35,29.24 320.00,32.19 320.00,32.39 C320.00,32.59 317.52,37.98 314.50,44.37 C311.48,50.76 309.00,56.16 309.00,56.37 C309.00,56.58 306.50,62.09 303.45,68.63 C297.08,82.27 297.88,80.56 290.06,97.50 ZM 567.08 108.08 C564.44,110.72 563.51,111.00 557.58,111.00 L 551.00 111.00 L 551.00 36.00 L 525.00 36.00 L 525.00 32.15 C525.00,30.03 525.50,26.87 526.11,25.12 C528.17,19.22 529.53,19.00 564.51,19.00 L 596.11 19.00 L 595.61 24.47 C594.66,34.73 592.89,36.00 579.57,36.00 L 570.00 36.00 L 570.00 105.15 ZM 464.00 35.79 L 464.00 67.00 L 475.53 67.00 C488.13,67.00 491.89,66.01 495.95,61.60 C499.40,57.86 500.02,47.95 497.10,43.30 C493.69,37.87 490.01,36.61 476.25,36.18 Z" fill="rgb(8,103,174)"/>
<path d="M 0.00 0.00 L 1000.00 0.00 L 539.75 0.12 C264.44,0.20 85.94,0.59 85.94,1.13 C85.94,1.14 85.96,1.14 86.00,1.15 C99.40,3.01 114.11,12.56 121.45,24.16 L 124.19 28.50 L 127.96 28.50 C127.56,28.60 127.20,28.70 126.88,28.83 L 124.26 29.85 L 126.10 35.18 C127.11,38.10 127.95,41.96 127.97,43.75 L 128.00 47.00 L 128.92 47.00 L 129.21 55.75 L 129.50 64.50 L 134.75 64.80 C137.64,64.97 140.00,65.28 140.00,65.50 C140.00,66.25 121.86,89.97 120.77,90.64 C120.16,91.02 118.60,90.01 117.29,88.41 C112.78,82.89 100.00,65.99 100.00,65.55 C100.00,65.30 102.36,64.97 105.25,64.80 L 110.50 64.50 L 110.43 55.00 C110.34,42.86 108.33,36.70 102.29,29.98 C96.99,24.08 92.10,21.32 84.46,19.91 C70.12,17.26 55.47,24.87 49.57,38.03 C46.99,43.77 46.80,45.16 46.65,58.84 L 46.50 73.50 L 39.17 74.23 C29.51,75.19 24.55,77.98 21.39,84.21 C18.54,89.85 18.40,94.10 20.89,99.50 C22.91,103.87 25.86,106.89 30.50,109.34 C32.93,110.62 37.23,110.93 53.25,110.96 C54.28,110.96 55.25,110.96 56.18,110.97 C67.82,111.00 71.84,111.01 72.59,109.45 C72.87,108.87 72.70,108.07 72.30,106.97 C76.47,116.23 85.54,124.56 94.86,127.43 C99.03,128.71 94.42,128.87 49.75,128.93 L 0.00 129.00 ZM 994.43 19.00 L 1000.00 19.00 L 1000.00 111.00 L 994.08 111.00 C989.21,111.00 987.62,110.55 985.18,108.50 L 982.20 105.99 L 976.89 108.75 C972.36,111.09 970.39,111.50 963.54,111.47 C956.83,111.45 954.68,111.01 950.50,108.81 C944.20,105.50 939.92,101.02 936.32,94.00 C933.71,88.90 933.50,87.66 933.51,77.00 C933.52,66.44 933.74,65.09 936.21,60.50 C939.76,53.88 944.84,48.75 950.71,45.86 C957.31,42.61 970.47,42.48 976.72,45.61 C979.04,46.77 981.18,47.48 981.47,47.19 C981.76,46.90 982.01,41.68 982.03,35.58 C982.07,21.16 983.69,19.00 994.43,19.00 ZM 806.15 110.57 C800.42,112.31 790.89,112.30 785.32,110.56 C776.21,107.71 768.69,100.89 764.30,91.50 C761.91,86.37 761.51,84.26 761.54,77.00 C761.57,69.84 762.02,67.52 764.42,62.25 C767.67,55.12 773.14,49.58 780.50,45.96 C784.85,43.82 786.87,43.50 796.00,43.50 C804.84,43.50 807.29,43.86 811.50,45.80 C831.95,55.21 837.27,83.60 821.77,100.56 C816.34,106.50 813.45,108.35 806.15,110.57 ZM 669.74 112.06 C658.46,113.69 649.39,112.39 640.02,107.81 C623.63,99.80 613.96,83.90 614.02,65.04 C614.07,50.85 618.03,40.97 627.49,31.44 C636.78,22.08 647.05,18.02 661.50,18.02 C677.81,18.02 690.22,24.05 698.48,35.97 C701.81,40.78 701.30,41.76 693.79,44.99 C687.93,47.51 686.99,47.25 677.66,40.52 C671.58,36.13 666.16,34.65 658.47,35.26 C644.02,36.40 634.33,47.04 633.29,62.92 C632.89,69.05 633.19,71.56 634.90,76.08 C639.54,88.31 648.94,94.99 661.50,94.97 C669.35,94.95 673.71,93.27 680.83,87.51 C683.46,85.37 686.25,84.00 687.94,84.00 C691.21,84.00 701.00,87.86 701.00,89.15 C701.00,90.90 696.13,97.57 691.85,101.70 C686.48,106.88 677.97,110.87 669.74,112.06 ZM 889.71 108.58 C874.48,115.48 860.07,110.98 853.31,97.23 C850.50,91.51 850.50,91.48 850.18,67.75 L 849.87 44.00 L 856.48 44.00 C862.35,44.00 863.37,44.30 865.55,46.65 C867.96,49.25 868.00,49.57 868.00,67.40 C868.01,83.59 868.21,85.84 869.96,88.70 C874.44,96.05 884.41,97.06 890.67,90.79 C894.89,86.57 895.95,80.70 895.98,61.32 C896.00,48.22 896.02,48.13 898.69,46.03 C900.88,44.30 902.50,43.97 907.44,44.21 L 913.50 44.50 L 913.78 72.50 C913.94,87.90 913.79,102.86 913.46,105.75 L 912.86 111.00 L 907.50 111.00 C903.19,111.00 901.55,110.49 899.04,108.38 L 895.93 105.76 ZM 0.00 0.00 L 0.09 44.25 C0.17,81.89 0.37,87.81 1.45,83.89 C4.63,72.36 11.50,64.19 22.24,59.18 L 27.98 56.50 L 28.00 51.00 C28.09,31.90 38.93,14.70 56.28,6.11 C62.01,3.28 66.62,1.77 71.50,1.15 C76.52,0.51 67.40,0.22 39.25,0.13 ZM 746.84 109.58 C745.10,110.48 741.16,111.43 738.09,111.68 C733.58,112.06 731.64,111.69 728.06,109.82 C719.60,105.40 719.61,105.45 719.16,75.93 C718.94,61.62 719.09,42.96 719.49,34.46 L 720.21 19.00 L 725.99 19.00 C733.24,19.00 735.86,20.90 737.06,27.04 C737.55,29.49 737.94,45.00 737.94,61.50 C737.94,78.00 737.96,92.29 737.97,93.25 C737.99,94.60 738.86,95.00 741.75,95.02 C743.81,95.02 746.00,95.36 746.60,95.77 C748.54,97.06 750.00,100.77 750.00,104.41 C750.00,107.37 749.48,108.22 746.84,109.58 ZM 787.07 92.84 C789.97,94.82 791.46,95.12 796.74,94.79 C803.90,94.35 807.55,92.23 810.25,86.93 C812.47,82.58 812.58,72.03 810.46,67.56 C808.34,63.09 802.49,60.00 796.15,60.00 C786.00,60.00 780.20,65.51 779.30,76.00 C778.72,82.69 781.73,89.19 787.07,92.84 ZM 961.02 93.88 C968.02,96.68 976.42,93.96 979.56,87.88 C982.10,82.98 982.60,73.84 980.61,68.76 C978.45,63.22 974.92,60.74 968.41,60.20 C958.56,59.38 952.25,65.16 951.28,75.88 C950.53,84.11 954.39,91.24 961.02,93.88 ZM 0.09 112.25 L 0.00 129.00 L 14.75 128.95 C29.35,128.90 29.46,128.88 25.50,127.28 C13.30,122.34 4.99,113.00 1.50,100.30 C0.26,95.80 0.17,96.54 0.09,112.25 ZM 139.04 28.61 C143.39,28.82 145.49,29.45 149.16,31.16 C150.51,31.79 151.87,32.57 153.22,33.47 C151.94,32.63 150.66,31.90 149.40,31.33 C146.71,30.10 142.87,29.15 139.04,28.61 ZM 145.80 51.22 C149.80,54.78 152.00,60.47 152.00,67.82 C152.00,60.54 149.76,54.81 145.80,51.22 ZM 68.96 70.99 L 68.81 65.00 L 68.83 65.00 ZM 71.27 104.37 C71.03,103.74 70.82,102.98 70.63,102.06 C70.82,102.90 71.03,103.66 71.27,104.37 Z" fill="rgb(8,187,245)"/>
<path d="M 0.16 103.53 C0.28,96.48 0.55,96.86 1.50,100.30 C2.75,104.84 4.61,108.96 7.06,112.59 C5.73,110.73 4.56,108.75 3.54,106.67 C2.01,103.55 0.59,101.00 0.38,101.00 C0.30,101.00 0.23,101.94 0.16,103.53 ZM 90.38 0.99 L 98.50 4.88 C98.60,4.93 98.69,4.98 98.79,5.02 C94.58,3.09 90.22,1.74 86.00,1.15 C85.96,1.14 85.94,1.14 85.94,1.13 C85.94,1.08 87.44,1.03 90.38,0.99 ZM 1.45 83.89 C1.07,85.27 0.80,85.43 0.60,83.45 L 3.83 77.32 C2.88,79.38 2.09,81.57 1.45,83.89 ZM 63.15 0.32 C72.25,0.48 74.64,0.75 71.50,1.15 C70.54,1.27 69.60,1.43 68.65,1.62 C69.05,1.45 69.36,1.23 69.50,1.00 C69.68,0.71 67.54,0.48 63.15,0.32 ZM 105.50 8.69 C112.42,12.96 117.49,17.91 121.45,24.16 C117.68,18.21 111.98,12.79 105.50,8.69 ZM 67.01 1.99 C63.66,2.83 60.24,4.15 56.28,6.11 C55.55,6.47 54.83,6.85 54.12,7.24 C54.84,6.84 55.57,6.46 56.32,6.09 C60.86,3.84 65.54,2.00 66.73,2.00 C66.82,2.00 66.92,2.00 67.01,1.99 ZM 14.17 64.10 C16.53,62.20 19.16,60.60 22.17,59.20 L 27.98 56.50 L 22.24 59.18 C19.25,60.57 16.56,62.21 14.17,64.10 ZM 38.16 21.02 C31.71,29.51 28.06,39.94 28.00,51.00 C28.06,39.93 31.71,29.51 38.16,21.02 Z" fill="rgb(145,217,240)"/>
<path d="M 0.00 115.00 C0.00,107.30 0.17,101.00 0.38,101.00 C0.59,101.00 2.01,103.55 3.54,106.67 C8.13,116.05 16.00,123.43 25.50,127.28 C29.46,128.88 29.35,128.90 14.75,128.95 L 0.00 129.00 L 0.00 115.00 ZM 171.00 128.06 C179.42,125.49 188.43,118.53 192.64,111.35 C204.25,91.54 195.79,66.64 174.51,58.01 C171.48,56.77 169.00,55.26 168.99,54.63 C168.98,54.01 167.92,51.23 166.63,48.45 C163.49,41.71 156.11,34.41 149.16,31.16 C144.28,28.88 142.18,28.52 133.85,28.51 L 124.19 28.50 L 121.45 24.16 C116.27,15.97 109.16,10.00 98.50,4.88 L 88.50 0.08 L 544.25 0.04 L 1000.00 0.00 L 1000.00 9.50 L 1000.00 19.00 L 994.43 19.00 C983.69,19.00 982.07,21.16 982.03,35.58 C982.01,41.68 981.76,46.90 981.47,47.19 C981.18,47.48 979.04,46.77 976.72,45.61 C970.47,42.48 957.31,42.61 950.71,45.86 C944.84,48.75 939.76,53.88 936.21,60.50 C933.74,65.09 933.52,66.44 933.51,77.00 C933.50,87.66 933.71,88.90 936.32,94.00 C939.92,101.02 944.20,105.50 950.50,108.81 C954.68,111.01 956.83,111.45 963.54,111.47 C970.39,111.50 972.36,111.09 976.89,108.75 L 982.20 105.99 L 985.18 108.50 C987.62,110.55 989.21,111.00 994.08,111.00 L 1000.00 111.00 L 1000.00 120.00 L 1000.00 129.00 L 584.25 128.91 C355.59,128.87 169.62,128.48 171.00,128.06 ZM 669.74 112.06 C677.97,110.87 686.48,106.88 691.85,101.70 C696.13,97.57 701.00,90.90 701.00,89.15 C701.00,87.86 691.21,84.00 687.94,84.00 C686.25,84.00 683.46,85.37 680.83,87.51 C673.71,93.27 669.35,94.95 661.50,94.97 C648.94,94.99 639.54,88.31 634.90,76.08 C633.19,71.56 632.89,69.05 633.29,62.92 C634.33,47.04 644.02,36.40 658.47,35.26 C666.16,34.65 671.58,36.13 677.66,40.52 C686.99,47.25 687.93,47.51 693.79,44.99 C701.30,41.76 701.81,40.78 698.48,35.97 C690.22,24.05 677.81,18.02 661.50,18.02 C647.05,18.02 636.78,22.08 627.49,31.44 C618.03,40.97 614.07,50.85 614.02,65.04 C613.96,83.90 623.63,99.80 640.02,107.81 C649.39,112.39 658.46,113.69 669.74,112.06 ZM 746.84 109.58 C749.48,108.22 750.00,107.37 750.00,104.41 C750.00,100.77 748.54,97.06 746.60,95.77 C746.00,95.36 743.81,95.02 741.75,95.02 C738.86,95.00 737.99,94.60 737.97,93.25 C737.96,92.29 737.94,78.00 737.94,61.50 C737.94,45.00 737.55,29.49 737.06,27.04 C735.86,20.90 733.24,19.00 725.99,19.00 L 720.21 19.00 L 719.49 34.46 C719.09,42.96 718.94,61.62 719.16,75.93 C719.61,105.45 719.60,105.40 728.06,109.82 C731.64,111.69 733.58,112.06 738.09,111.68 C741.16,111.43 745.10,110.48 746.84,109.58 ZM 806.15 110.57 C813.45,108.35 816.34,106.50 821.77,100.56 C837.27,83.60 831.95,55.21 811.50,45.80 C807.29,43.86 804.84,43.50 796.00,43.50 C786.87,43.50 784.85,43.82 780.50,45.96 C773.14,49.58 767.67,55.12 764.42,62.25 C762.02,67.52 761.57,69.84 761.54,77.00 C761.51,84.26 761.91,86.37 764.30,91.50 C768.69,100.89 776.21,107.71 785.32,110.56 C790.89,112.30 800.42,112.31 806.15,110.57 ZM 889.71 108.58 L 895.93 105.76 L 899.04 108.38 C901.55,110.49 903.19,111.00 907.50,111.00 L 912.86 111.00 L 913.46 105.75 C913.79,102.86 913.94,87.90 913.78,72.50 L 913.50 44.50 L 907.44 44.21 C902.50,43.97 900.88,44.30 898.69,46.03 C896.02,48.13 896.00,48.22 895.98,61.32 C895.95,80.70 894.89,86.57 890.67,90.79 C884.41,97.06 874.44,96.05 869.96,88.70 C868.21,85.84 868.01,83.59 868.00,67.40 C868.00,49.57 867.96,49.25 865.55,46.65 C863.37,44.30 862.35,44.00 856.48,44.00 L 849.87 44.00 L 850.18 67.75 C850.50,91.48 850.50,91.51 853.31,97.23 C860.07,110.98 874.48,115.48 889.71,108.58 ZM 290.06 97.50 C297.88,80.56 297.08,82.27 303.45,68.63 C306.50,62.09 309.00,56.58 309.00,56.37 C309.00,56.16 311.48,50.76 314.50,44.37 C317.52,37.98 320.00,32.59 320.00,32.39 C320.00,32.19 321.35,29.24 323.00,25.84 C324.65,22.43 326.00,19.50 326.00,19.32 C326.00,19.15 322.29,19.00 317.75,19.00 C305.20,19.01 304.98,19.22 295.58,40.60 C283.16,68.82 280.76,74.00 280.11,74.00 C279.77,74.00 276.83,67.81 273.57,60.25 C270.31,52.69 266.45,43.80 264.99,40.50 C263.52,37.20 261.27,31.90 259.97,28.73 C256.49,20.21 255.43,19.56 244.40,19.15 C238.80,18.95 235.00,19.20 235.00,19.77 C235.00,20.30 236.98,24.95 239.40,30.12 C243.69,39.26 260.92,76.91 270.47,98.00 C273.09,103.78 275.70,109.09 276.28,109.80 C276.87,110.53 278.80,110.97 280.70,110.80 C283.98,110.51 284.23,110.16 290.06,97.50 ZM 353.39 110.04 C358.45,108.12 359.00,105.18 359.00,79.97 C359.00,67.24 359.39,56.98 359.87,57.17 C360.35,57.35 366.07,63.12 372.58,70.00 C411.21,110.79 411.44,111.00 415.90,111.00 L 420.00 111.00 L 420.00 64.89 L 420.00 18.77 L 412.99 19.17 C407.40,19.49 405.54,20.02 403.74,21.81 C401.56,23.99 401.49,24.71 401.20,48.03 C401.03,61.21 400.55,72.00 400.13,72.00 C399.24,72.00 380.39,52.82 361.56,32.75 L 348.65 19.00 L 343.83 19.00 L 339.00 19.00 L 339.00 64.33 C339.00,89.27 339.30,109.97 339.67,110.33 C340.67,111.34 350.52,111.13 353.39,110.04 ZM 461.08 108.08 C463.94,105.21 464.00,104.93 464.00,94.58 L 464.00 84.00 L 474.82 84.00 C498.42,84.00 509.47,78.90 515.83,65.09 C518.73,58.79 519.32,48.65 517.21,41.44 C515.51,35.63 510.31,28.22 506.03,25.52 C497.59,20.19 494.15,19.61 468.75,19.21 L 445.00 18.84 L 445.00 64.25 C445.00,89.23 445.30,109.97 445.67,110.33 C446.03,110.70 448.99,111.00 452.24,111.00 C457.44,111.00 458.51,110.65 461.08,108.08 ZM 567.08 108.08 L 570.00 105.15 L 570.00 70.58 L 570.00 36.00 L 579.57 36.00 C592.89,36.00 594.66,34.73 595.61,24.47 L 596.11 19.00 L 564.51 19.00 C529.53,19.00 528.17,19.22 526.11,25.12 C525.50,26.87 525.00,30.03 525.00,32.15 L 525.00 36.00 L 538.00 36.00 L 551.00 36.00 L 551.00 73.50 L 551.00 111.00 L 557.58 111.00 C563.51,111.00 564.44,110.72 567.08,108.08 ZM 30.50 109.34 C25.86,106.89 22.91,103.87 20.89,99.50 C18.40,94.10 18.54,89.85 21.39,84.21 C24.55,77.98 29.51,75.19 39.17,74.23 L 46.50 73.50 L 46.65 58.84 C46.80,45.16 46.99,43.77 49.57,38.03 C55.47,24.87 70.12,17.26 84.46,19.91 C92.10,21.32 96.99,24.08 102.29,29.98 C108.33,36.70 110.34,42.86 110.43,55.00 L 110.50 64.50 L 105.25 64.80 C102.36,64.97 100.00,65.30 100.00,65.55 C100.00,65.99 112.78,82.89 117.29,88.41 C118.60,90.01 120.16,91.02 120.77,90.64 C121.86,89.97 140.00,66.25 140.00,65.50 C140.00,65.28 137.64,64.97 134.75,64.80 L 129.50 64.50 L 129.21 55.75 L 128.92 47.00 L 134.01 47.00 C145.08,47.00 152.00,55.01 152.00,67.82 L 152.00 73.71 L 160.03 74.26 C169.14,74.89 171.63,76.12 176.02,82.19 C181.76,90.10 179.30,102.12 170.81,107.75 L 166.65 110.50 L 136.08 110.81 C102.58,111.15 100.19,110.86 94.33,105.72 C88.67,100.75 88.00,98.07 88.00,80.53 L 88.00 65.00 L 93.58 65.00 C96.65,65.00 99.02,64.60 98.83,64.11 C98.01,61.89 79.39,38.07 78.50,38.08 C77.42,38.10 59.71,61.59 59.18,63.72 C58.95,64.63 60.28,65.00 63.83,65.00 L 68.81 65.00 L 69.27 82.75 C69.61,95.74 70.16,101.57 71.32,104.50 C74.04,111.34 74.98,111.00 53.25,110.96 C37.23,110.93 32.93,110.62 30.50,109.34 ZM 961.02 93.88 C954.39,91.24 950.53,84.11 951.28,75.88 C952.25,65.16 958.56,59.38 968.41,60.20 C974.92,60.74 978.45,63.22 980.61,68.76 C982.60,73.84 982.10,82.98 979.56,87.88 C976.42,93.96 968.02,96.68 961.02,93.88 ZM 0.03 42.25 L 0.00 0.00 L 35.06 -0.00 C58.18,-0.00 69.91,0.34 69.50,1.00 C69.16,1.55 67.91,2.00 66.73,2.00 C65.54,2.00 60.86,3.84 56.32,6.09 C38.92,14.71 28.09,31.89 28.00,51.00 L 27.98 56.50 L 22.17 59.20 C13.98,63.01 8.56,68.32 4.00,77.00 L 0.05 84.50 L 0.03 42.25 ZM 787.07 92.84 C781.73,89.19 778.72,82.69 779.30,76.00 C780.20,65.51 786.00,60.00 796.15,60.00 C802.49,60.00 808.34,63.09 810.46,67.56 C812.58,72.03 812.47,82.58 810.25,86.93 C807.55,92.23 803.90,94.35 796.74,94.79 C791.46,95.12 789.97,94.82 787.07,92.84 ZM 464.00 51.40 L 464.00 35.79 L 476.25 36.18 C490.01,36.61 493.69,37.87 497.10,43.30 C500.02,47.95 499.40,57.86 495.95,61.60 C491.89,66.01 488.13,67.00 475.53,67.00 L 464.00 67.00 L 464.00 51.40 Z" fill="transparent"/>
</g>
</svg>